<?xml version="1.0" encoding="utf-8"?>
<!-- Generator: Adobe Illustrator 15.0.2, SVG Export Plug-In  -->
<!DOCTYPE svg PUBLIC "-//W3C//DTD SVG 1.1//EN" "http://www.w3.org/Graphics/SVG/1.1/DTD/svg11.dtd" [
	<!ENTITY ns_flows "http://ns.adobe.com/Flows/1.0/">
]>
<svg version="1.1"
	 xmlns="http://www.w3.org/2000/svg" xmlns:xlink="http://www.w3.org/1999/xlink" xmlns:a="http://ns.adobe.com/AdobeSVGViewerExtensions/3.0/"
	 x="0px" y="0px" width="600px" height="189px" viewBox="-0.333 0.317 600 189"
	 overflow="visible" enable-background="new -0.333 0.317 600 189" xml:space="preserve">
<defs>
</defs>
<path fill-rule="evenodd" clip-rule="evenodd" fill="#E25027" d="M476.042,105.035c-13.288,0-26.575,0-39.866,0
	c-0.029,1.497-0.279,3.507,0,5.199c0.098,0.597,0.181,1.854,0.433,2.6c0.073,0.217,0.666,1.447,0.867,1.734
	c1.186,1.683,6.129,3.238,9.535,3.466c8.127,0.551,19.906-2.069,24.698-3.466c1.814,4.974,2.684,10.893,3.466,16.898
	c-10.651,3.246-22.934,5.591-34.666,4.334c-1.521-0.163-2.315-0.038-4.333-0.433c-0.225-0.045-3.496-0.816-5.634-1.733
	c-1.768-0.76-5.379-2.721-7.365-4.333c-0.923-0.747-1.904-1.424-2.601-2.167c-0.371-0.397-1.935-2.245-2.167-2.602
	c-0.552-0.838-1.488-3.082-2.167-4.765c-0.369-0.916-0.607-1.736-0.866-2.6c-2.797-9.297-3.104-33.853,0.866-42.466
	c0.516-1.121,1.268-3.842,2.167-5.201c0.313-0.471,1.608-1.302,2.167-2.166c2.132-3.295,7.521-6.007,12.134-7.364
	c0.847-0.253,2.936-0.964,4.766-1.302c2.924-0.54,9.005-0.536,10.835-0.432c1.785,0.101,3.625,0.207,5.199,0.432
	c0.637,0.09,3.393,0.463,4.771,0.964c2.01,0.73,5.936,2.597,6.494,2.937c1.96,1.188,4.202,3.164,5.201,4.331
	c0.674,0.791,1.527,2.35,2.167,3.468C476.688,78.342,476.295,90.945,476.042,105.035z M455.24,82.502
	c-0.092-1.153-0.622-2.573-0.864-3.034c-0.856-1.627-2.422-2.495-2.6-2.6c-1.827-1.057-6.661-1.354-9.102-0.868
	c-5.467,1.096-7.251,6.491-6.499,12.136c6.355,0,12.711,0,19.064,0C455.315,86.485,455.392,84.383,455.24,82.502z"/>
<path fill-rule="evenodd" clip-rule="evenodd" fill="#E25027" d="M544.372,134.5c-2.252,0-5.457,0-8.668,0
	c-2.957,0-7.574,0.081-8.297-0.253c-2.041-0.943-1.791-2.402-2.534-4.514c-7.136,3.836-19.027,8.984-29.031,5.201
	c-0.861-0.325-3.793-1.747-5.202-3.034c-3.448-3.145-5.979-9.331-6.502-15.167c-0.871-9.791,1.849-17.532,7.802-21.232
	c1.55-0.963,5.079-2.65,8.231-3.034c7.259-0.882,12.745,0.633,22.1,0c0.146-1.487,0.076-3.61,0-5.632
	c-0.092-2.396,0.044-4.311-0.431-5.633c-0.574-1.588-2.213-3.12-3.902-3.899c-1.436-0.663-5.7-0.866-8.234-0.866
	c-7.261,0-16.185,1.491-20.797,2.166c-0.595-5.762-2.066-10.646-2.602-16.467c6.451-2.675,15.934-2.952,23.834-3.899
	c2.175-0.264,4.657-0.126,7.368,0c4.895,0.226,8.938,0.853,12.998,2.165c3.375,1.093,4.776,1.892,6.933,3.468
	c0.994,0.727,2.104,1.88,2.498,2.341c0.687,0.799,2.035,2.833,2.701,4.591c1.404,3.711,1.963,9.859,2.169,14.735
	C545.435,100.498,544.673,120.585,544.372,134.5z M506.67,108.935c-1.725,1.667-1.698,6.921,0,8.667
	c1.193,1.226,2.673,1.314,2.603,1.3c4.335,0.928,11.487-1.586,13.432-3.468c-1.003-1.74-0.149-5.339-0.434-7.799
	C517.163,108.221,509.291,106.408,506.67,108.935z"/>
<path fill-rule="evenodd" clip-rule="evenodd" fill="#E25027" d="M599.699,79.035c-6.827,3.141-13.984,5.95-19.933,9.968
	c0,15.164,0,30.333,0,45.498c-7.365,0-14.73,0-22.099,0c0-24.988,0-49.978,0-74.964c4.985-0.008,13.527-0.045,17.735,0.271
	c0.893,0,0.726,1.114,1.331,3.195c0.328,1.129,0.506,2.429,0.866,3.468c0.128,0.47,0.506,0.243,0.866,0
	c1.947-1.318,5.082-3.07,7.802-4.334c3.244-1.509,7.287-2.885,10.831-3.899c0.368-0.081,0.407,0.168,0.434,0.432
	C598.232,61.978,599.235,71.723,599.699,79.035z"/>
<path fill-rule="evenodd" clip-rule="evenodd" fill="#669EB2" d="M31.631,72.256c9.968,0,19.934,0,29.902,0
	c2.767,8.488,5.208,17.033,7.798,25.565c1.928,6.347,4.202,12.673,6.067,19.065c0.646,2.213,1.081,4.373,1.732,6.501
	c5.208,17.021,10.791,33.908,15.601,51.131c-7.946,0-15.89,0-23.833,0c-1.962-6.562-3.593-13.449-5.633-19.932
	c-0.875,0.009-32.529,0.177-33.798,0.432c-2.209,6.171-3.687,13.068-5.633,19.5c-7.944,0-15.887,0-23.833,0
	c7.449-25.375,15.061-50.612,22.966-75.832c2.641-8.427,4.838-16.878,7.8-25.131C30.748,72.814,31.089,72.433,31.631,72.256z
	 M45.5,95.222c-3.343,12.943-7.267,26.76-10.833,39.863c0.746,0.051,21.876-0.032,22.966,0
	c-3.647-13.828-7.256-27.699-11.266-41.163C45.956,94.085,45.606,94.802,45.5,95.222z"/>
<path fill-rule="evenodd" clip-rule="evenodd" fill="#669EB2" d="M157.193,145.054c-13.287,0-26.577,0-39.864,0
	c-0.138,2.367,0.005,4.263,0.432,6.065c0.235,0.987,0.413,1.146,0.868,2.168c1.14,2.562,4.025,3.679,4.766,3.899
	c3.53,1.051,7.021,0.829,11.7,0.432c4.646-0.392,9.005-0.851,13.001-1.731c2.021-0.445,3.829-0.789,5.2-0.868
	c1.232,5.269,2.388,11.521,3.033,16.467c-6.996,2.271-15.556,4.185-24.266,4.768c-6.972,0.466-13.888-0.329-19.531-2.362
	c-1.024-0.369-2.126-0.702-3.002-1.105c-1.391-0.641-3.153-1.884-4.765-3.032c-0.154-0.107-2.892-2.718-4.335-4.767
	c-1.441-2.047-4.045-6.715-4.766-10.399c-0.837-4.283-0.435-9.779-0.435-15.165c0-5.508-0.429-11.201,0-16.034
	c0.368-4.105,1.717-8.048,3.468-11.268c1.232-2.261,2.459-4.608,3.9-6.065c0.359-0.362,2.241-1.918,2.6-2.169
	c2.991-2.064,7.451-3.579,11.701-4.765c4.885-1.365,13.355-1.036,19.066,0c1.902,0.345,3.535,0.706,5.2,1.3
	c1.47,0.524,3.032,1.137,4.164,1.766c0.752,0.418,1.957,1.172,2.088,1.253c5.763,3.55,9.187,12.246,9.778,19.948
	C157.686,129.766,157.354,137.308,157.193,145.054z M133.362,117.32c-3.902-2.528-12.18-1.219-14.3,1.3
	c-0.136,0.165-0.758,1.145-0.865,1.302c-1.284,1.867-0.933,6.779-0.867,8.231c6.354,0,12.711,0,19.066,0
	C136.668,122.765,136.017,119.042,133.362,117.32z"/>
<path fill-rule="evenodd" clip-rule="evenodd" fill="#669EB2" d="M210.824,118.62c-0.156,0.98-0.518,0.981-2.165,1.736
	c-2.197,1.006-5.347,1.836-7.801,3.032c-3.429,1.671-7.257,3.646-9.532,5.198c0,15.312,0,30.622,0,45.933
	c0.02,0.039-22.53,0.039-22.614-0.045c0-24.698,0.08-49.788,0.08-74.484c4.463-0.055,14.163-0.008,18.633,0
	c0.415,2.329,0.747,4.16,1.301,6.931c6.099-3.432,12.565-6.499,19.933-8.666C210.186,104.239,210.723,113.755,210.824,118.62z"/>
<path fill="#E25027" d="M425.329,71.677l-3.694-18.695c-0.295-1.459-1.285-2.632-2.454-2.874l-10.864-2.22
	c2.526,5.138,4.438,10.679,5.566,16.575c1.115,5.771,1.4,11.508,1.001,17.104l9.269-6.292
	C425.141,74.606,425.613,73.144,425.329,71.677z"/>
<path fill-rule="evenodd" clip-rule="evenodd" fill="#E25027" d="M414.082,63.485c-7.382-35.73-42.332-58.713-78.065-51.329
	c-35.731,7.382-58.712,42.334-51.329,78.065c6.469,31.314,34.113,52.83,64.897,52.705c-21.852-3.588-40.278-20.23-45.025-43.209
	c-6.156-29.795,13.004-58.939,42.799-65.095c29.794-6.157,58.935,13.005,65.091,42.8c1.104,5.335,1.38,10.647,0.944,15.813
	C415.816,83.794,416.189,73.674,414.082,63.485z"/>
<path fill="#E25027" d="M283.827,71.036l-11.024,7.287c-1.002,0.663-1.482,2.114-1.208,3.581l3.55,18.724
	c0.278,1.469,1.268,2.649,2.438,2.908l12.96,2.807c-2.641-5.269-4.63-10.969-5.797-17.039C283.557,83.132,283.294,77,283.827,71.036
	z"/>
<path fill="#E25027" d="M354.042,11.314l-6.766-10.045c-0.67-0.993-2.131-1.472-3.6-1.188l-18.704,3.632
	c-1.471,0.284-2.639,1.272-2.885,2.445l-2.509,12.084c5.347-2.709,11.145-4.742,17.32-5.934
	C342.685,11.198,348.432,10.911,354.042,11.314z"/>
<path fill="#E25027" d="M306.648,26.874l-12.385-2.421c-1.174-0.224-2.548,0.471-3.383,1.706l-10.66,15.794
	c-0.837,1.244-0.969,2.772-0.311,3.768l6.968,10.63C290.649,44.914,297.496,34.697,306.648,26.874z"/>
<path fill="#E25027" d="M298.66,118.761l-2.571,12.803c-0.233,1.174,0.457,2.54,1.7,3.382l15.779,10.679
	c1.241,0.838,2.77,0.965,3.773,0.316l10.625-6.887C316.538,135.117,306.383,128.083,298.66,118.761z"/>
<path fill="#E25027" d="M398.74,33.578l2.233-11.115c0.236-1.164-0.456-2.54-1.697-3.376L383.495,8.408
	c-1.236-0.832-2.771-0.963-3.773-0.318l-9.839,6.379C381.03,18.151,391.006,24.762,398.74,33.578z"/>
<path fill="#EB8467" d="M392.035,90.96c0.147-12.908-10.503-20.354-20.518-23.018c-2.9-0.771-5.838-1.104-8.729-0.984
	c-12.216,0.501-22.257,8.897-25.58,21.393c-2.068,7.771-1.192,15.625,2.462,22.108c3.617,6.416,9.684,11.031,17.076,12.998
	c3.1,0.825,6.221,1.182,9.277,1.056c4.752-0.194,11.267-1.666,16.847-7.222l-27.544-7.329c-1.216-0.322-1.941-1.571-1.617-2.786
	l3.152-11.842c0.323-1.215,1.568-1.937,2.785-1.615l44.651,11.879c0.995-3.733,1.47-7.641,1.373-11.626l-11.501-0.713
	C392.961,93.184,392.021,92.174,392.035,90.96z"/>
<path fill="#669EB2" d="M295.477,142.956l-6.966-4.742c-0.008-0.099-0.009-0.202-0.019-0.302c-0.228-2.364-0.683-4.684-1.329-6.927
	c-0.029-0.095-0.065-0.19-0.092-0.285l4.748-7.145c0.397-0.592,0.328-1.508-0.157-2.251l-6.19-9.482
	c-0.485-0.742-1.291-1.166-1.986-1.036l-8.389,1.586c-0.077-0.063-0.147-0.135-0.224-0.198c-1.731-1.435-3.593-2.727-5.581-3.845
	c-0.085-0.046-0.176-0.085-0.26-0.132l-1.703-8.551c-0.142-0.699-0.83-1.296-1.694-1.472l-11.035-2.243
	c-0.864-0.177-1.729,0.101-2.129,0.688l-4.762,7.067c-0.098,0.005-0.197,0.008-0.296,0.017c-2.363,0.222-4.679,0.674-6.925,1.324
	c-0.099,0.029-0.196,0.068-0.295,0.097l-7.065-4.72c-0.589-0.392-1.496-0.321-2.233,0.172l-9.405,6.3
	c-0.739,0.494-1.158,1.31-1.026,2.011l1.529,8.201c-0.064,0.072-0.136,0.144-0.198,0.22c-1.545,1.861-2.926,3.882-4.11,6.041
	c-0.048,0.088-0.087,0.179-0.136,0.267l-8.369,1.658c-0.695,0.136-1.291,0.83-1.472,1.701l-2.318,11.148
	c-0.18,0.872,0.093,1.747,0.673,2.156l7.002,4.897c0.008,0.101,0.009,0.199,0.019,0.299c0.221,2.426,0.677,4.801,1.339,7.099
	c0.027,0.1,0.063,0.195,0.093,0.29l-4.721,7.101c-0.394,0.593-0.328,1.506,0.158,2.253l6.189,9.478
	c0.484,0.743,1.291,1.168,1.987,1.038l8.31-1.568c0.078,0.062,0.148,0.134,0.226,0.202c1.867,1.55,3.89,2.934,6.056,4.114
	c0.087,0.05,0.181,0.088,0.266,0.133l1.604,8.302c0.137,0.7,0.823,1.299,1.691,1.468l11.028,2.263
	c0.867,0.178,1.732-0.105,2.138-0.692l4.841-7.092c0.098-0.012,0.204-0.012,0.302-0.021c1.593-0.169,3.161-0.445,4.701-0.813
	c-2.249,0.236-4.555,0.235-6.896-0.098c-15.4-2.185-26.111-16.443-23.922-31.841c2.186-15.402,16.443-26.115,31.845-23.926
	c15.398,2.186,26.108,16.441,23.922,31.843c-0.502,3.541-1.667,6.815-3.313,9.758c1.129-1.502,2.187-3.073,3.096-4.754
	c0.048-0.09,0.087-0.186,0.137-0.276l8.311-1.746c0.691-0.149,1.285-0.849,1.459-1.722l2.231-11.163
	C296.339,144.226,296.063,143.357,295.477,142.956z"/>
</svg>
